<?xml version="1.0" encoding="iso-8859-1"?>
<!-- Generator: Adobe Illustrator 19.0.0, SVG Export Plug-In . SVG Version: 6.00 Build 0)  -->
<svg xmlns="http://www.w3.org/2000/svg" xmlns:xlink="http://www.w3.org/1999/xlink" version="1.1" id="Layer_1" x="0px" y="0px" viewBox="0 0 512 512" style="enable-background:new 0 0 512 512;" xml:space="preserve">
<rect x="222.584" y="82.202" style="fill:#FF5948;" width="84.093" height="58.734"/>
<rect x="222.584" y="82.202" style="fill:#D44A3C;" width="20.898" height="58.734"/>
<rect x="333.312" y="82.202" style="fill:#FF5948;" width="84.093" height="58.734"/>
<rect x="333.312" y="82.202" style="fill:#D44A3C;" width="20.898" height="58.734"/>
<rect x="40.42" y="164.122" style="fill:#CCA38D;" width="431.156" height="265.676"/>
<rect x="40.42" y="164.122" style="fill:#A68472;" width="20.898" height="265.676"/>
<rect x="199.576" y="201.394" style="fill:#5E5456;" width="239.282" height="228.404"/>
<g>
	<rect x="199.576" y="201.394" style="fill:#FF5948;" width="239.282" height="41.788"/>
	<rect x="84.02" y="243.179" style="fill:#FF5948;" width="84.093" height="186.619"/>
</g>
<rect x="84.02" y="243.179" style="fill:#D44A3C;" width="20.898" height="186.619"/>
<rect x="8.662" y="225.771" style="fill:#FF5948;" width="43.886" height="85.68"/>
<rect x="20.126" y="130.341" style="fill:#FFD359;" width="471.751" height="50.153"/>
<rect x="20.126" y="130.341" style="fill:#DB9840;" width="20.898" height="50.153"/>
<path style="fill:#CCA38D;" d="M307.475,429.801h-72.379c-0.65,0-1.177-0.527-1.177-1.177v-75.317c0-0.65,0.527-1.177,1.177-1.177  h72.379c0.65,0,1.177,0.527,1.177,1.177v75.317C308.651,429.274,308.125,429.801,307.475,429.801z"/>
<path style="fill:#A68472;" d="M254.816,428.624v-75.317c0-0.65,0.527-1.177,1.177-1.177h-20.898c-0.65,0-1.177,0.527-1.177,1.177  v75.317c0,0.65,0.527,1.177,1.177,1.177h20.898C255.344,429.801,254.816,429.274,254.816,428.624z"/>
<path style="fill:#CCA38D;" d="M402.912,429.801h-72.379c-0.65,0-1.177-0.527-1.177-1.177v-75.317c0-0.65,0.527-1.177,1.177-1.177  h72.379c0.65,0,1.177,0.527,1.177,1.177v75.317C404.088,429.274,403.562,429.801,402.912,429.801z"/>
<path style="fill:#A68472;" d="M350.253,428.624v-75.317c0-0.65,0.527-1.177,1.177-1.177h-20.898c-0.65,0-1.177,0.527-1.177,1.177  v75.317c0,0.65,0.527,1.177,1.177,1.177h20.898C350.78,429.801,350.253,429.274,350.253,428.624z"/>
<path style="fill:#CCA38D;" d="M402.912,352.131h-72.379c-0.65,0-1.177-0.527-1.177-1.177v-75.317c0-0.65,0.527-1.177,1.177-1.177  h72.379c0.65,0,1.177,0.527,1.177,1.177v75.317C404.088,351.604,403.562,352.131,402.912,352.131z"/>
<path style="fill:#A68472;" d="M350.253,350.954v-75.317c0-0.65,0.527-1.177,1.177-1.177h-20.898c-0.65,0-1.177,0.527-1.177,1.177  v75.317c0,0.65,0.527,1.177,1.177,1.177h20.898C350.78,352.131,350.253,351.604,350.253,350.954z"/>
<path d="M283.194,96.497h-37.616c-4.328,0-7.837,3.512-7.837,7.844s3.509,7.844,7.837,7.844h37.616c4.328,0,7.837-3.512,7.837-7.844  C291.031,100.009,287.522,96.497,283.194,96.497z"/>
<path d="M393.927,96.497H356.31c-4.328,0-7.837,3.512-7.837,7.844s3.509,7.844,7.837,7.844h37.616c4.328,0,7.837-3.512,7.837-7.844  C401.763,100.009,398.254,96.497,393.927,96.497z"/>
<ellipse cx="143.496" cy="323.5" rx="7.837" ry="7.844"/>
<path d="M504.163,422.123H479.42V291.559c0-4.332-3.509-7.844-7.837-7.844c-4.328,0-7.837,3.512-7.837,7.844V422.12h-17.053V243.165  v-41.827c0-4.332-3.509-7.844-7.837-7.844H199.576c-4.328,0-7.837,3.512-7.837,7.844v41.827V422.12h-15.794V243.165  c0-4.332-3.509-7.844-7.837-7.844H84.015c-4.328,0-7.837,3.512-7.837,7.844V422.12H48.253V319.349h4.295  c4.328,0,7.837-3.512,7.837-7.844v-85.763c0-4.332-3.509-7.844-7.837-7.844h-4.295v-29.639h415.493v64.497  c0,4.332,3.509,7.844,7.837,7.844c4.328,0,7.837-3.512,7.837-7.844v-64.497h12.454c4.328,0,7.837-3.512,7.837-7.844v-50.201  c0-4.332-3.509-7.844-7.837-7.844h-66.632V82.032c0-4.332-3.509-7.844-7.837-7.844h-84.093c-4.328,0-7.837,3.512-7.837,7.844v40.337  h-10.961V82.032c0-4.332-3.509-7.844-7.837-7.844h-84.093c-4.328,0-7.837,3.512-7.837,7.844v40.337h-63.412  c-4.328,0-7.837,3.512-7.837,7.844c0,4.332,3.509,7.844,7.837,7.844h71.167c0.027,0,0.053,0.004,0.08,0.004  c0.027,0,0.053-0.004,0.08-0.004h83.931c0.027,0,0.053,0.004,0.08,0.004c0.027,0,0.053-0.004,0.08-0.004h26.472  c0.027,0,0.053,0.004,0.08,0.004c0.027,0,0.053-0.004,0.08-0.004h83.931c0.027,0,0.053,0.004,0.08,0.004s0.053-0.004,0.08-0.004  h66.551v34.512h-12.374c-0.027,0-0.053-0.004-0.08-0.004s-0.053,0.004-0.08,0.004H40.498c-0.027,0-0.053-0.004-0.08-0.004  c-0.027,0-0.053,0.004-0.08,0.004H27.963v-34.512h82.797c4.328,0,7.837-3.512,7.837-7.844c0-4.332-3.509-7.844-7.837-7.844H20.126  c-4.328,0-7.837,3.512-7.837,7.844v50.201c0,4.332,3.509,7.844,7.837,7.844H32.58v29.639H8.663c-4.328,0-7.837,3.512-7.837,7.844  v23.458c0,4.332,3.509,7.844,7.837,7.844s7.837-3.512,7.837-7.844v-15.614h28.212v70.074H16.5v-17.331  c0-4.332-3.509-7.844-7.837-7.844s-7.837,3.512-7.837,7.844v25.175c0,4.332,3.509,7.844,7.837,7.844h23.918v102.775H7.837  c-4.328,0-7.837,3.512-7.837,7.844c0,4.334,3.509,7.846,7.837,7.846h76.178h84.093h31.467h35.52h72.38h23.057h72.38h35.944h65.306  c4.328,0,7.837-3.512,7.837-7.844C512,425.636,508.491,422.123,504.163,422.123z M341.149,89.877h68.42v32.492h-68.42V89.877z   M230.421,89.877h68.42v32.492h-68.42L230.421,89.877L230.421,89.877z M377.597,391.095l18.655-19.407v38.814L377.597,391.095z   M385.67,422.12h-37.895l18.948-19.712L385.67,422.12z M366.722,379.782l-18.951-19.715h37.903L366.722,379.782z M347.77,344.377  l18.951-19.715l18.951,19.715H347.77z M355.846,391.095l-18.655,19.407v-38.814L355.846,391.095z M396.251,332.755l-18.655-19.407  l18.655-19.407V332.755z M366.722,302.035L347.77,282.32h37.903L366.722,302.035z M355.846,313.349l-18.655,19.407v-38.814  L355.846,313.349z M252.338,422.12l18.948-19.712l18.948,19.712H252.338z M300.816,410.502l-18.655-19.407l18.655-19.407V410.502z   M271.285,379.782l-18.951-19.715h37.903L271.285,379.782z M260.41,391.095l-18.655,19.407v-38.814L260.41,391.095z   M207.412,230.096H431.02v5.226H207.412V230.096z M431.02,209.182v5.224H207.412v-5.224H431.02z M207.412,251.011H431.02V422.12  h-19.095V353.4c0-0.183-0.017-0.362-0.027-0.541c0.007-0.088,0.006-0.176,0.01-0.262c0.006-0.125,0.01-0.25,0.01-0.375  c0-0.125-0.004-0.25-0.01-0.374c-0.004-0.088-0.004-0.176-0.01-0.262c0.01-0.18,0.027-0.358,0.027-0.541v-75.389  c0-0.183-0.017-0.362-0.027-0.541c0.183-2.265-0.612-4.591-2.376-6.289c-1.671-1.609-3.87-2.321-6.013-2.162  c-0.199-0.014-0.396-0.03-0.597-0.03h-72.38c-0.202,0-0.399,0.017-0.598,0.03c-2.143-0.158-4.342,0.553-6.012,2.162  c-1.764,1.698-2.559,4.024-2.376,6.289c-0.01,0.18-0.027,0.358-0.027,0.541v75.389c0,0.183,0.017,0.362,0.027,0.541  c-0.007,0.088-0.006,0.176-0.01,0.262c-0.006,0.125-0.01,0.25-0.01,0.374c0,0.125,0.004,0.25,0.01,0.375  c0.004,0.088,0.004,0.176,0.01,0.262c-0.01,0.18-0.027,0.358-0.027,0.541v68.72h-5.029V353.4c0-0.183-0.017-0.362-0.027-0.541  c0.183-2.265-0.612-4.591-2.376-6.289c-1.671-1.609-3.869-2.32-6.012-2.162c-0.199-0.014-0.396-0.03-0.599-0.03h-72.38  c-0.202,0-0.4,0.017-0.599,0.03c-2.143-0.159-4.342,0.553-6.012,2.162c-1.764,1.698-2.559,4.024-2.376,6.289  c-0.01,0.18-0.027,0.358-0.027,0.541v68.72h-18.668V251.011z M91.852,251.011h68.42V422.12h-68.42  C91.852,422.12,91.852,251.011,91.852,251.011z"/>
<g>
</g>
<g>
</g>
<g>
</g>
<g>
</g>
<g>
</g>
<g>
</g>
<g>
</g>
<g>
</g>
<g>
</g>
<g>
</g>
<g>
</g>
<g>
</g>
<g>
</g>
<g>
</g>
<g>
</g>
</svg>
