<?xml version="1.0" encoding="iso-8859-1"?>
<!-- Generator: Adobe Illustrator 19.0.0, SVG Export Plug-In . SVG Version: 6.00 Build 0)  -->
<svg xmlns="http://www.w3.org/2000/svg" xmlns:xlink="http://www.w3.org/1999/xlink" version="1.1" id="Layer_1" x="0px" y="0px" viewBox="0 0 512 512" style="enable-background:new 0 0 512 512;" xml:space="preserve">
<g>
	<rect x="58.023" y="423.748" style="fill:#5E5456;" width="61.369" height="80.416"/>
	<rect x="392.735" y="423.748" style="fill:#5E5456;" width="61.369" height="80.416"/>
</g>
<rect x="52.874" y="7.837" style="fill:#968789;" width="405.64" height="352.726"/>
<rect x="52.874" y="7.837" style="fill:#5E5456;" width="20.898" height="352.726"/>
<rect x="81.104" y="141.563" style="fill:#FF5948;" width="349.79" height="282.185"/>
<g>
	<rect x="81.104" y="141.563" style="fill:#D44A3C;" width="20.908" height="282.185"/>
	<rect x="430.591" y="334.451" style="fill:#D44A3C;" width="39.418" height="103.643"/>
</g>
<rect x="41.687" y="334.451" style="fill:#BF4436;" width="39.418" height="103.643"/>
<rect x="81.104" y="173.464" style="fill:#36C8E3;" width="349.79" height="111.344"/>
<rect x="81.104" y="173.464" style="fill:#2A8CBD;" width="20.592" height="111.344"/>
<path style="fill:#DB9840;" d="M81.249,284.675H49.902c-4.616,0-8.359-3.743-8.359-8.359v-29.257c0-4.616,3.743-8.359,8.359-8.359  h31.347V284.675z"/>
<g>
	<path style="fill:#FFD359;" d="M430.75,238.7h31.347c4.616,0,8.359,3.743,8.359,8.359v29.257c0,4.616-3.743,8.359-8.359,8.359   H430.75V238.7z"/>
	<path style="fill:#FFD359;" d="M394.911,141.565H116.652v-40.076c0-3.463,2.807-6.269,6.269-6.269h265.721   c3.463,0,6.269,2.807,6.269,6.269V141.565z"/>
</g>
<path style="fill:#DB9840;" d="M143.819,95.219h-20.898c-3.463,0-6.269,2.807-6.269,6.269v40.075h20.898v-40.075  C137.55,98.027,140.356,95.219,143.819,95.219z"/>
<rect x="71.98" y="413.414" style="fill:#FFD359;" width="367.428" height="44.095"/>
<rect x="71.98" y="413.414" style="fill:#DB9840;" width="20.898" height="44.095"/>
<g>
	<circle style="fill:#36C8E3;" cx="139.786" cy="347.136" r="28.212"/>
	<circle style="fill:#36C8E3;" cx="371.774" cy="347.136" r="28.212"/>
</g>
<path d="M478.04,276.316v-29.257c0-7.457-5.068-13.736-11.932-15.611V120.163c0-4.328-3.505-7.837-7.827-7.837  c-4.323,0-7.827,3.509-7.827,7.837v110.7h-11.93V173.46c0-0.295-0.02-0.584-0.051-0.87v-31.279c0-3.711-2.579-6.812-6.04-7.624  V15.673h18.019v64.7c0,4.328,3.505,7.837,7.827,7.837s7.827-3.509,7.827-7.837V7.837c0-4.328-3.505-7.837-7.827-7.837h-33.675  h-29.852h-31.712h-29.85h-31.707h-29.85h-31.708h-29.851h-31.707h-29.851h-31.707H86.958H53.102c-4.323,0-7.827,3.509-7.827,7.837  v223.776c-6.552,2.072-11.315,8.211-11.315,15.446v29.257c0,7.235,4.764,13.375,11.315,15.446v34.853h-3.341  c-4.323,0-7.827,3.509-7.827,7.837v103.654c0,4.328,3.505,7.837,7.827,7.837h8.486v58.222c0,4.328,3.505,7.837,7.827,7.837h61.297  c4.323,0,7.827-3.509,7.827-7.837v-38.82h58.003c4.323,0,7.827-3.509,7.827-7.837c0-4.328-3.505-7.837-7.827-7.837H80.018v-11.525  c0-0.014,0.002-0.027,0.002-0.041c0-0.014-0.002-0.027-0.002-0.041v-16.812H431.37v16.015c-0.029,0.275-0.046,0.555-0.046,0.837  s0.017,0.562,0.046,0.837v10.728H227.82c-4.323,0-7.827,3.509-7.827,7.837c0,4.328,3.505,7.837,7.827,7.837h156.933v38.822  c0,4.328,3.505,7.837,7.827,7.837h61.297c4.324,0,7.827-3.509,7.827-7.837v-58.222h8.309c4.324,0,7.827-3.509,7.827-7.837V334.451  c0-4.328-3.505-7.837-7.827-7.837h-3.905v-34.687C472.973,290.052,478.04,283.773,478.04,276.316z M461.863,246.536  c0.287,0,0.521,0.234,0.521,0.522v29.257c0,0.288-0.234,0.522-0.521,0.522h-3.521c-0.021,0-0.041-0.003-0.061-0.003  c-0.02,0-0.04,0.003-0.061,0.003h-19.696v-30.302H461.863z M89.131,405.578v-71.127c0-0.295-0.02-0.584-0.051-0.87v-40.944h333.737  v41.816v71.127H89.131V405.578z M53.163,276.838c-0.021,0-0.041-0.003-0.061-0.003c-0.02,0-0.04,0.003-0.061,0.003h-2.906  c-0.288,0-0.521-0.234-0.521-0.522v-29.257c0-0.288,0.234-0.522,0.521-0.522h23.289v30.302H53.163z M124.638,87.383V15.673h16.052  v71.709H124.638z M124.638,103.056h23.85c0.01,0,0.02,0.001,0.03,0.001c0.01,0,0.02-0.001,0.03-0.001h29.79  c0.01,0,0.02,0.001,0.03,0.001s0.02-0.001,0.03-0.001h31.647c0.01,0,0.02,0.001,0.03,0.001s0.02-0.001,0.03-0.001h29.79  c0.01,0,0.02,0.001,0.03,0.001c0.01,0,0.02-0.001,0.03-0.001h31.648c0.01,0,0.02,0.001,0.03,0.001c0.01,0,0.02-0.001,0.03-0.001  h29.789c0.01,0,0.02,0.001,0.03,0.001s0.02-0.001,0.03-0.001h31.647c0.01,0,0.02,0.001,0.03,0.001s0.02-0.001,0.03-0.001h29.789  c0.01,0,0.02,0.001,0.03,0.001s0.02-0.001,0.03-0.001h23.854v30.417H124.638V103.056z M186.196,87.383V15.673h16.052v71.709H186.196  z M247.754,87.383V15.673h16.053v71.709H247.754z M309.312,87.383V15.673h16.052v71.709H309.312z M89.131,237.221v-55.924h212.356  c4.324,0,7.827-3.509,7.827-7.837c0-4.328-3.505-7.837-7.827-7.837H89.08v-16.222h27.731h277.944h28.063v16.222h-79.355  c-4.324,0-7.827,3.509-7.827,7.837c0,4.328,3.505,7.837,7.827,7.837h79.355v56.251c-0.055,0.377-0.094,0.76-0.094,1.151v38.263  H89.276V238.7C89.276,238.194,89.223,237.7,89.131,237.221z M386.926,87.383H370.87V15.673h16.056V87.383z M416.778,15.673v117.801  h-14.196V101.49V15.673H416.778z M355.215,15.673v71.709h-14.194V15.673H355.215z M293.657,15.673v71.709h-14.194V15.673H293.657z   M232.098,15.673v71.709h-14.195V15.673H232.098z M170.54,15.673v71.709h-14.195V15.673H170.54z M108.982,15.673v85.815v31.984  H94.786v-117.8H108.982z M79.131,15.673v118.1c-3.29,0.927-5.706,3.947-5.706,7.537v89.552H60.93V15.673H79.131z M60.93,292.512  h12.495v34.102H60.93V292.512z M49.762,342.288h23.663v63.291h-1.235c-4.323,0-7.827,3.509-7.827,7.837v16.852h-14.6V342.288z   M111.717,465.343v30.983H66.076v-33.934c1.435,1.797,3.638,2.951,6.115,2.951H111.717z M400.409,496.327v-30.983h38.79  c2.951,0,5.517-1.635,6.851-4.049v35.032H400.409z M462.186,430.268h-15.16v-16.852c0-4.328-3.505-7.837-7.827-7.837h-0.725v-63.292  h23.713V430.268z M438.473,326.614v-34.102h11.98v34.102H438.473z"/>
<path d="M366.656,110.555H144.884c-4.323,0-7.827,3.509-7.827,7.837s3.505,7.837,7.827,7.837h221.773  c4.324,0,7.827-3.509,7.827-7.837S370.98,110.555,366.656,110.555z"/>
<path d="M139.922,311.089c-19.855,0-36.008,16.172-36.008,36.049s16.153,36.049,36.008,36.049s36.008-16.172,36.008-36.049  S159.777,311.089,139.922,311.089z M139.922,367.514c-11.222,0-20.353-9.141-20.353-20.376c0-11.235,9.13-20.376,20.353-20.376  c11.222,0,20.353,9.141,20.353,20.376C160.274,358.373,151.144,367.514,139.922,367.514z"/>
<path d="M371.643,311.089c-19.855,0-36.008,16.172-36.008,36.049s16.153,36.049,36.008,36.049s36.008-16.172,36.008-36.049  S391.498,311.089,371.643,311.089z M371.643,367.514c-11.222,0-20.353-9.141-20.353-20.376c0-11.235,9.13-20.376,20.353-20.376  s20.353,9.141,20.353,20.376C391.995,358.373,382.865,367.514,371.643,367.514z"/>
<path d="M302.025,300.163c-4.324,0-7.827,3.509-7.827,7.837v78.279c0,4.328,3.505,7.837,7.827,7.837  c4.323,0,7.827-3.509,7.827-7.837v-78.279C309.852,303.671,306.349,300.163,302.025,300.163z"/>
<path d="M271.196,300.163c-4.324,0-7.827,3.509-7.827,7.837v78.279c0,4.328,3.505,7.837,7.827,7.837  c4.324,0,7.828-3.509,7.828-7.837v-78.279C279.025,303.671,275.52,300.163,271.196,300.163z"/>
<path d="M240.368,300.163c-4.323,0-7.827,3.509-7.827,7.837v78.279c0,4.328,3.505,7.837,7.827,7.837  c4.323,0,7.827-3.509,7.827-7.837v-78.279C248.196,303.671,244.692,300.163,240.368,300.163z"/>
<path d="M209.539,300.163c-4.323,0-7.827,3.509-7.827,7.837v78.279c0,4.328,3.505,7.837,7.827,7.837s7.827-3.509,7.827-7.837  v-78.279C217.368,303.671,213.863,300.163,209.539,300.163z"/>
<g>
</g>
<g>
</g>
<g>
</g>
<g>
</g>
<g>
</g>
<g>
</g>
<g>
</g>
<g>
</g>
<g>
</g>
<g>
</g>
<g>
</g>
<g>
</g>
<g>
</g>
<g>
</g>
<g>
</g>
</svg>
